<?xml version="1.0" ?><svg xmlns="http://www.w3.org/2000/svg" xmlns:xlink="http://www.w3.org/1999/xlink" version="1.1" viewBox="0 0 512 512" style="enable-background:new 0 0 512 512;" xml:space="preserve"><g id="_x32_0_Project_based_Learning"><g><path d="M432.603,153.275h-15.618c-3.145-20.566-20.814-36.075-42.075-36.075s-38.93,15.51-42.075,36.075H304.51V122.42    c0-2.657-2.15-4.807-4.807-4.807c-18.176,0-32.963-14.806-32.963-33.001s14.787-33.001,32.963-33.001    c2.657,0,4.807-2.15,4.807-4.807V15.686c1.582,0.047,3.169,0.117,4.746,0.216c65.964,4.6,118.911,57.838,123.154,123.835    C432.706,144.234,432.767,148.698,432.603,153.275z"/><path d="M207.447,89.339v26.56c-21.223,2.399-37.77,20.476-37.77,42.347s16.547,39.948,37.77,42.347v26.316h-32.63    c-2.657,0-4.807,2.15-4.807,4.807c0,0.399,0.023,0.798,0.052,1.197l0.028,0.54c0,18.172-14.806,32.958-33.001,32.958    s-33.001-14.787-33.001-32.958c0-0.465,0.033-0.925,0.066-1.385c0.099-1.333-0.361-2.648-1.272-3.624    c-0.911-0.981-2.183-1.535-3.521-1.535h-19.96c-0.061-1.573-0.094-3.159-0.094-4.751    C79.307,150.487,136.362,91.884,207.447,89.339z M134.367,329.958c-30.691-22.237-50.262-56.064-54.252-93.435h14.468    c1.582,22.049,20.04,39.502,42.507,39.502s40.925-17.453,42.507-39.502h27.851v34.282c0,2.657,2.192,4.807,4.849,4.807    c18.172,0,32.958,14.806,32.958,33.005c0,18.195-14.787,33.001-33.001,33.001c-2.657,0-4.807,2.15-4.807,4.807v59.354h-32.874    C174.268,376.258,159.284,347.97,134.367,329.958z M232.571,476.021c0,11.191-9.107,20.293-20.298,20.293    s-20.293-9.102-20.293-20.293v-0.272h40.591V476.021z M269.111,455.854c0,5.671-4.614,10.28-10.285,10.28h-21.448h-50.205H165.72    c-5.671,0-10.28-4.61-10.28-10.28s4.61-10.28,10.28-10.28h93.106C264.497,445.574,269.111,450.183,269.111,455.854z     M269.111,425.674c0,5.671-4.614,10.285-10.285,10.285H165.72c-5.671,0-10.28-4.614-10.28-10.285s4.61-10.28,10.28-10.28h4.051    h42.483h42.525h4.046C264.497,415.394,269.111,420.004,269.111,425.674z M289.625,330.353    c-24.589,17.594-39.361,45.736-39.648,75.428h-32.916v-54.81c21.242-2.38,37.808-20.467,37.808-42.352    c0-21.875-16.547-39.958-37.808-42.352v-29.743h32.672c2.568,0,4.685-2.023,4.802-4.591c0.803-17.655,15.266-31.484,32.926-31.484    c17.665,0,32.123,13.829,32.921,31.484c0.117,2.568,2.23,4.591,4.802,4.591h19.284    C340.431,274.172,320.64,308.153,289.625,330.353z"/></g></g><g id="Layer_1"/></svg>